<?xml version="1.0" encoding="UTF-8" standalone="no"?>
<svg xmlns:svg="http://www.w3.org/2000/svg"
xmlns="http://www.w3.org/2000/svg" version="1.1"
width="360" height="185">
<!-- Created with the Wikimedia parliament diagram creator (http://tools.wmflabs.org/parliamentdiagram/parliamentinputform.html) -->
<g>
<text x="175" y="175" style="font-size:36px;font-weight:bold;text-align:center;text-anchor:middle;font-family:Sans">384</text>
  <g style="fill:#FFFF00" id="ARDP">
    <circle cx="10.05" cy="176.00" r="4.00"/>
    <circle cx="20.05" cy="176.00" r="4.00"/>
    <circle cx="30.05" cy="176.00" r="4.00"/>
    <circle cx="40.06" cy="176.00" r="4.00"/>
    <circle cx="50.06" cy="176.00" r="4.00"/>
    <circle cx="60.07" cy="176.00" r="4.00"/>
    <circle cx="70.07" cy="176.00" r="4.00"/>
    <circle cx="80.08" cy="176.00" r="4.00"/>
    <circle cx="90.09" cy="176.00" r="4.00"/>
    <circle cx="100.10" cy="176.00" r="4.00"/>
    <circle cx="10.59" cy="165.90" r="4.00"/>
    <circle cx="20.64" cy="165.71" r="4.00"/>
    <circle cx="30.68" cy="165.73" r="4.00"/>
    <circle cx="40.73" cy="165.74" r="4.00"/>
    <circle cx="50.78" cy="165.76" r="4.00"/>
    <circle cx="60.84" cy="165.78" r="4.00"/>
    <circle cx="70.92" cy="165.81" r="4.00"/>
    <circle cx="81.01" cy="165.84" r="4.00"/>
    <circle cx="11.72" cy="155.85" r="4.00"/>
    <circle cx="21.89" cy="155.49" r="4.00"/>
    <circle cx="91.18" cy="165.50" r="4.00"/>
    <circle cx="32.01" cy="155.52" r="4.00"/>
    <circle cx="42.15" cy="155.56" r="4.00"/>
    <circle cx="101.32" cy="165.50" r="4.00"/>
    <circle cx="52.31" cy="155.61" r="4.00"/>
    <circle cx="13.46" cy="145.88" r="4.00"/>
    <circle cx="62.49" cy="155.67" r="4.00"/>
    <circle cx="23.79" cy="145.36" r="4.00"/>
    <circle cx="72.71" cy="155.74" r="4.00"/>
    <circle cx="34.04" cy="145.43" r="4.00"/>
    <circle cx="82.96" cy="155.83" r="4.00"/>
    <circle cx="44.31" cy="145.51" r="4.00"/>
    <circle cx="15.78" cy="136.04" r="4.00"/>
    <circle cx="54.63" cy="145.61" r="4.00"/>
    <circle cx="93.49" cy="155.19" r="4.00"/>
    <circle cx="26.35" cy="135.38" r="4.00"/>
    <circle cx="65.00" cy="145.73" r="4.00"/>
    <circle cx="36.75" cy="135.50" r="4.00"/>
    <circle cx="103.92" cy="155.26" r="4.00"/>
    <circle cx="75.42" cy="145.88" r="4.00"/>
    <circle cx="18.69" cy="126.35" r="4.00"/>
    <circle cx="47.21" cy="135.65" r="4.00"/>
    <circle cx="85.93" cy="146.07" r="4.00"/>
    <circle cx="57.73" cy="135.83" r="4.00"/>
    <circle cx="29.54" cy="125.58" r="4.00"/>
    <circle cx="40.14" cy="125.79" r="4.00"/>
    <circle cx="68.34" cy="136.05" r="4.00"/>
    <circle cx="22.16" cy="116.85" r="4.00"/>
    <circle cx="50.82" cy="126.03" r="4.00"/>
    <circle cx="96.99" cy="145.23" r="4.00"/>
    <circle cx="79.04" cy="136.32" r="4.00"/>
    <circle cx="33.35" cy="116.01" r="4.00"/>
    <circle cx="61.60" cy="126.32" r="4.00"/>
    <circle cx="44.19" cy="116.32" r="4.00"/>
    <circle cx="26.20" cy="107.57" r="4.00"/>
    <circle cx="107.85" cy="145.44" r="4.00"/>
    <circle cx="89.88" cy="136.67" r="4.00"/>
    <circle cx="72.50" cy="126.68" r="4.00"/>
    <circle cx="55.13" cy="116.70" r="4.00"/>
    <circle cx="37.78" cy="106.70" r="4.00"/>
    <circle cx="30.78" cy="98.56" r="4.00"/>
    <circle cx="83.54" cy="127.13" r="4.00"/>
    <circle cx="66.20" cy="117.15" r="4.00"/>
    <circle cx="48.87" cy="107.16" r="4.00"/>
    <circle cx="101.63" cy="135.74" r="4.00"/>
    <circle cx="42.79" cy="97.70" r="4.00"/>
    <circle cx="60.11" cy="107.70" r="4.00"/>
    <circle cx="77.44" cy="117.71" r="4.00"/>
    <circle cx="94.76" cy="127.71" r="4.00"/>
    <circle cx="35.89" cy="89.83" r="4.00"/>
    <circle cx="54.18" cy="98.34" r="4.00"/>
    <circle cx="113.04" cy="136.23" r="4.00"/>
    <circle cx="71.52" cy="108.37" r="4.00"/>
    <circle cx="88.86" cy="118.40" r="4.00"/>
    <circle cx="48.37" cy="89.04" r="4.00"/>
    <circle cx="65.74" cy="99.10" r="4.00"/>
    <circle cx="41.51" cy="81.41" r="4.00"/>
    <circle cx="83.12" cy="109.18" r="4.00"/>
    <circle cx="107.36" cy="126.87" r="4.00"/>
    <circle cx="60.07" cy="89.90" r="4.00"/>
    <circle cx="100.53" cy="119.30" r="4.00"/>
    <circle cx="77.51" cy="100.03" r="4.00"/>
    <circle cx="54.50" cy="80.76" r="4.00"/>
    <circle cx="47.61" cy="73.35" r="4.00"/>
    <circle cx="94.98" cy="110.21" r="4.00"/>
    <circle cx="71.98" cy="90.94" r="4.00"/>
    <circle cx="119.39" cy="127.78" r="4.00"/>
    <circle cx="66.53" cy="81.89" r="4.00"/>
    <circle cx="89.52" cy="101.18" r="4.00"/>
    <circle cx="61.15" cy="72.89" r="4.00"/>
    <circle cx="54.19" cy="65.67" r="4.00"/>
    <circle cx="84.13" cy="92.19" r="4.00"/>
    <circle cx="114.08" cy="118.72" r="4.00"/>
    <circle cx="107.13" cy="111.52" r="4.00"/>
    <circle cx="78.81" cy="83.25" r="4.00"/>
    <circle cx="101.82" cy="102.61" r="4.00"/>
    <circle cx="73.53" cy="74.34" r="4.00"/>
    <circle cx="61.21" cy="58.39" r="4.00"/>
    <circle cx="68.29" cy="65.46" r="4.00"/>
    <circle cx="96.57" cy="93.75" r="4.00"/>
    <circle cx="91.36" cy="84.90" r="4.00"/>
    <circle cx="86.18" cy="76.09" r="4.00"/>
    <circle cx="126.81" cy="120.24" r="4.00"/>
    <circle cx="81.03" cy="67.29" r="4.00"/>
  </g>
  <g style="fill:#00FF00" id="MTDP">
    <circle cx="114.49" cy="104.45" r="4.00"/>
    <circle cx="68.66" cy="51.54" r="4.00"/>
    <circle cx="75.89" cy="58.50" r="4.00"/>
    <circle cx="121.71" cy="111.42" r="4.00"/>
    <circle cx="109.35" cy="95.69" r="4.00"/>
    <circle cx="104.24" cy="86.94" r="4.00"/>
    <circle cx="99.14" cy="78.21" r="4.00"/>
    <circle cx="94.06" cy="69.48" r="4.00"/>
    <circle cx="76.49" cy="45.14" r="4.00"/>
    <circle cx="88.99" cy="60.77" r="4.00"/>
    <circle cx="83.93" cy="52.06" r="4.00"/>
    <circle cx="122.52" cy="98.17" r="4.00"/>
    <circle cx="117.48" cy="89.49" r="4.00"/>
    <circle cx="112.45" cy="80.82" r="4.00"/>
    <circle cx="84.70" cy="39.22" r="4.00"/>
    <circle cx="135.15" cy="113.75" r="4.00"/>
    <circle cx="107.42" cy="72.15" r="4.00"/>
    <circle cx="102.40" cy="63.48" r="4.00"/>
    <circle cx="130.15" cy="105.07" r="4.00"/>
    <circle cx="97.38" cy="54.81" r="4.00"/>
    <circle cx="92.36" cy="46.14" r="4.00"/>
    <circle cx="93.24" cy="33.81" r="4.00"/>
    <circle cx="101.16" cy="40.77" r="4.00"/>
    <circle cx="106.16" cy="49.43" r="4.00"/>
    <circle cx="111.16" cy="58.10" r="4.00"/>
    <circle cx="116.16" cy="66.76" r="4.00"/>
    <circle cx="121.16" cy="75.42" r="4.00"/>
    <circle cx="126.16" cy="84.08" r="4.00"/>
    <circle cx="131.16" cy="92.74" r="4.00"/>
    <circle cx="102.09" cy="28.90" r="4.00"/>
    <circle cx="139.27" cy="99.74" r="4.00"/>
    <circle cx="144.28" cy="108.42" r="4.00"/>
    <circle cx="110.28" cy="35.99" r="4.00"/>
    <circle cx="115.28" cy="44.68" r="4.00"/>
    <circle cx="120.29" cy="53.37" r="4.00"/>
    <circle cx="125.29" cy="62.07" r="4.00"/>
    <circle cx="130.29" cy="70.78" r="4.00"/>
    <circle cx="135.30" cy="79.49" r="4.00"/>
    <circle cx="111.21" cy="24.54" r="4.00"/>
    <circle cx="140.30" cy="88.22" r="4.00"/>
    <circle cx="119.70" cy="31.80" r="4.00"/>
    <circle cx="124.72" cy="40.56" r="4.00"/>
    <circle cx="129.74" cy="49.33" r="4.00"/>
    <circle cx="120.58" cy="20.72" r="4.00"/>
    <circle cx="134.77" cy="58.12" r="4.00"/>
    <circle cx="148.95" cy="95.53" r="4.00"/>
    <circle cx="139.79" cy="66.94" r="4.00"/>
    <circle cx="154.03" cy="104.33" r="4.00"/>
    <circle cx="144.83" cy="75.78" r="4.00"/>
    <circle cx="129.36" cy="28.23" r="4.00"/>
    <circle cx="134.41" cy="37.10" r="4.00"/>
    <circle cx="149.86" cy="84.65" r="4.00"/>
    <circle cx="130.16" cy="17.47" r="4.00"/>
    <circle cx="139.46" cy="46.00" r="4.00"/>
    <circle cx="144.52" cy="54.93" r="4.00"/>
    <circle cx="139.23" cy="25.28" r="4.00"/>
    <circle cx="149.59" cy="63.92" r="4.00"/>
    <circle cx="144.32" cy="34.31" r="4.00"/>
    <circle cx="139.91" cy="14.79" r="4.00"/>
    <circle cx="159.06" cy="92.47" r="4.00"/>
    <circle cx="154.66" cy="72.96" r="4.00"/>
    <circle cx="149.40" cy="43.38" r="4.00"/>
    <circle cx="159.73" cy="82.08" r="4.00"/>
    <circle cx="164.23" cy="101.57" r="4.00"/>
    <circle cx="154.50" cy="52.53" r="4.00"/>
    <circle cx="149.28" cy="22.98" r="4.00"/>
    <circle cx="149.81" cy="12.70" r="4.00"/>
    <circle cx="154.39" cy="32.20" r="4.00"/>
    <circle cx="159.60" cy="61.75" r="4.00"/>
    <circle cx="159.51" cy="41.51" r="4.00"/>
    <circle cx="164.71" cy="71.07" r="4.00"/>
    <circle cx="159.45" cy="21.33" r="4.00"/>
    <circle cx="159.81" cy="11.20" r="4.00"/>
    <circle cx="164.64" cy="50.91" r="4.00"/>
    <circle cx="169.46" cy="90.62" r="4.00"/>
    <circle cx="164.59" cy="30.79" r="4.00"/>
    <circle cx="169.81" cy="80.52" r="4.00"/>
  </g>
  <g style="fill:#FFCC00" id="AM">
    <circle cx="169.76" cy="60.44" r="4.00"/>
    <circle cx="169.73" cy="40.38" r="4.00"/>
    <circle cx="174.71" cy="100.17" r="4.00"/>
    <circle cx="169.70" cy="20.33" r="4.00"/>
    <circle cx="169.89" cy="10.30" r="4.00"/>
    <circle cx="174.89" cy="70.12" r="4.00"/>
    <circle cx="174.87" cy="50.10" r="4.00"/>
    <circle cx="174.85" cy="30.09" r="4.00"/>
    <circle cx="180.00" cy="20.00" r="4.00"/>
    <circle cx="180.00" cy="40.00" r="4.00"/>
    <circle cx="180.00" cy="60.00" r="4.00"/>
    <circle cx="180.00" cy="80.00" r="4.00"/>
    <circle cx="180.00" cy="90.00" r="4.00"/>
    <circle cx="180.00" cy="10.00" r="4.00"/>
    <circle cx="185.15" cy="30.09" r="4.00"/>
    <circle cx="185.13" cy="50.10" r="4.00"/>
    <circle cx="185.11" cy="70.12" r="4.00"/>
    <circle cx="190.11" cy="10.30" r="4.00"/>
    <circle cx="190.30" cy="20.33" r="4.00"/>
    <circle cx="185.29" cy="100.17" r="4.00"/>
    <circle cx="190.27" cy="40.38" r="4.00"/>
    <circle cx="190.24" cy="60.44" r="4.00"/>
    <circle cx="190.19" cy="80.52" r="4.00"/>
    <circle cx="195.41" cy="30.79" r="4.00"/>
    <circle cx="190.54" cy="90.62" r="4.00"/>
    <circle cx="195.36" cy="50.91" r="4.00"/>
    <circle cx="200.19" cy="11.20" r="4.00"/>
    <circle cx="200.55" cy="21.33" r="4.00"/>
    <circle cx="195.29" cy="71.07" r="4.00"/>
    <circle cx="200.49" cy="41.51" r="4.00"/>
    <circle cx="200.40" cy="61.75" r="4.00"/>
    <circle cx="205.61" cy="32.20" r="4.00"/>
    <circle cx="210.19" cy="12.70" r="4.00"/>
    <circle cx="210.72" cy="22.98" r="4.00"/>
    <circle cx="205.50" cy="52.53" r="4.00"/>
    <circle cx="195.77" cy="101.57" r="4.00"/>
    <circle cx="200.27" cy="82.08" r="4.00"/>
    <circle cx="210.60" cy="43.38" r="4.00"/>
    <circle cx="205.34" cy="72.96" r="4.00"/>
    <circle cx="200.94" cy="92.47" r="4.00"/>
    <circle cx="220.09" cy="14.79" r="4.00"/>
    <circle cx="215.68" cy="34.31" r="4.00"/>
    <circle cx="210.41" cy="63.92" r="4.00"/>
    <circle cx="220.77" cy="25.28" r="4.00"/>
    <circle cx="215.48" cy="54.93" r="4.00"/>
    <circle cx="220.54" cy="46.00" r="4.00"/>
    <circle cx="229.84" cy="17.47" r="4.00"/>
    <circle cx="210.14" cy="84.65" r="4.00"/>
    <circle cx="225.59" cy="37.10" r="4.00"/>
    <circle cx="230.64" cy="28.23" r="4.00"/>
    <circle cx="215.17" cy="75.78" r="4.00"/>
    <circle cx="205.97" cy="104.33" r="4.00"/>
    <circle cx="220.21" cy="66.94" r="4.00"/>
    <circle cx="211.05" cy="95.53" r="4.00"/>
    <circle cx="225.23" cy="58.12" r="4.00"/>
    <circle cx="239.42" cy="20.72" r="4.00"/>
    <circle cx="230.26" cy="49.33" r="4.00"/>
    <circle cx="235.28" cy="40.56" r="4.00"/>
    <circle cx="240.30" cy="31.80" r="4.00"/>
    <circle cx="219.70" cy="88.22" r="4.00"/>
    <circle cx="248.79" cy="24.54" r="4.00"/>
  </g>
  <g style="fill:#FF0000" id="IIP">
    <circle cx="224.70" cy="79.49" r="4.00"/>
    <circle cx="229.71" cy="70.78" r="4.00"/>
    <circle cx="234.71" cy="62.07" r="4.00"/>
    <circle cx="239.71" cy="53.37" r="4.00"/>
    <circle cx="244.72" cy="44.68" r="4.00"/>
    <circle cx="249.72" cy="35.99" r="4.00"/>
    <circle cx="215.72" cy="108.42" r="4.00"/>
    <circle cx="220.73" cy="99.74" r="4.00"/>
    <circle cx="257.91" cy="28.90" r="4.00"/>
    <circle cx="228.84" cy="92.74" r="4.00"/>
    <circle cx="233.84" cy="84.08" r="4.00"/>
    <circle cx="238.84" cy="75.42" r="4.00"/>
    <circle cx="243.84" cy="66.76" r="4.00"/>
    <circle cx="248.84" cy="58.10" r="4.00"/>
    <circle cx="253.84" cy="49.43" r="4.00"/>
    <circle cx="258.84" cy="40.77" r="4.00"/>
    <circle cx="266.76" cy="33.81" r="4.00"/>
    <circle cx="267.64" cy="46.14" r="4.00"/>
    <circle cx="262.62" cy="54.81" r="4.00"/>
    <circle cx="229.85" cy="105.07" r="4.00"/>
    <circle cx="257.60" cy="63.48" r="4.00"/>
    <circle cx="252.58" cy="72.15" r="4.00"/>
    <circle cx="224.85" cy="113.75" r="4.00"/>
    <circle cx="275.30" cy="39.22" r="4.00"/>
    <circle cx="247.55" cy="80.82" r="4.00"/>
    <circle cx="242.52" cy="89.49" r="4.00"/>
    <circle cx="237.48" cy="98.17" r="4.00"/>
    <circle cx="276.07" cy="52.06" r="4.00"/>
    <circle cx="271.01" cy="60.77" r="4.00"/>
    <circle cx="283.51" cy="45.14" r="4.00"/>
    <circle cx="265.94" cy="69.48" r="4.00"/>
    <circle cx="260.86" cy="78.21" r="4.00"/>
    <circle cx="255.76" cy="86.94" r="4.00"/>
    <circle cx="250.65" cy="95.69" r="4.00"/>
    <circle cx="238.29" cy="111.42" r="4.00"/>
    <circle cx="284.11" cy="58.50" r="4.00"/>
    <circle cx="291.34" cy="51.54" r="4.00"/>
    <circle cx="245.51" cy="104.45" r="4.00"/>
    <circle cx="278.97" cy="67.29" r="4.00"/>
    <circle cx="233.19" cy="120.24" r="4.00"/>
    <circle cx="273.82" cy="76.09" r="4.00"/>
    <circle cx="268.64" cy="84.90" r="4.00"/>
    <circle cx="263.43" cy="93.75" r="4.00"/>
    <circle cx="291.71" cy="65.46" r="4.00"/>
    <circle cx="298.79" cy="58.39" r="4.00"/>
    <circle cx="286.47" cy="74.34" r="4.00"/>
    <circle cx="258.18" cy="102.61" r="4.00"/>
    <circle cx="281.19" cy="83.25" r="4.00"/>
    <circle cx="252.87" cy="111.52" r="4.00"/>
    <circle cx="245.92" cy="118.72" r="4.00"/>
    <circle cx="275.87" cy="92.19" r="4.00"/>
    <circle cx="305.81" cy="65.67" r="4.00"/>
    <circle cx="298.85" cy="72.89" r="4.00"/>
    <circle cx="270.48" cy="101.18" r="4.00"/>
    <circle cx="293.47" cy="81.89" r="4.00"/>
  </g>
  <g style="fill:#00FFFF" id="CDP">
    <circle cx="240.61" cy="127.78" r="4.00"/>
    <circle cx="288.02" cy="90.94" r="4.00"/>
    <circle cx="265.02" cy="110.21" r="4.00"/>
    <circle cx="312.39" cy="73.35" r="4.00"/>
    <circle cx="305.50" cy="80.76" r="4.00"/>
    <circle cx="282.49" cy="100.03" r="4.00"/>
    <circle cx="259.47" cy="119.30" r="4.00"/>
    <circle cx="299.93" cy="89.90" r="4.00"/>
    <circle cx="252.64" cy="126.87" r="4.00"/>
    <circle cx="276.88" cy="109.18" r="4.00"/>
    <circle cx="318.49" cy="81.41" r="4.00"/>
    <circle cx="294.26" cy="99.10" r="4.00"/>
    <circle cx="311.63" cy="89.04" r="4.00"/>
    <circle cx="271.14" cy="118.40" r="4.00"/>
    <circle cx="288.48" cy="108.37" r="4.00"/>
    <circle cx="246.96" cy="136.23" r="4.00"/>
    <circle cx="305.82" cy="98.34" r="4.00"/>
    <circle cx="324.11" cy="89.83" r="4.00"/>
    <circle cx="265.24" cy="127.71" r="4.00"/>
    <circle cx="282.56" cy="117.71" r="4.00"/>
    <circle cx="299.89" cy="107.70" r="4.00"/>
    <circle cx="317.21" cy="97.70" r="4.00"/>
  </g>
  <g style="fill:#FF00FF" id="BRLA">
    <circle cx="258.37" cy="135.74" r="4.00"/>
    <circle cx="311.13" cy="107.16" r="4.00"/>
    <circle cx="293.80" cy="117.15" r="4.00"/>
    <circle cx="276.46" cy="127.13" r="4.00"/>
    <circle cx="329.22" cy="98.56" r="4.00"/>
    <circle cx="322.22" cy="106.70" r="4.00"/>
    <circle cx="304.87" cy="116.70" r="4.00"/>
    <circle cx="287.50" cy="126.68" r="4.00"/>
    <circle cx="270.12" cy="136.67" r="4.00"/>
    <circle cx="252.15" cy="145.44" r="4.00"/>
    <circle cx="333.80" cy="107.57" r="4.00"/>
    <circle cx="315.81" cy="116.32" r="4.00"/>
    <circle cx="298.40" cy="126.32" r="4.00"/>
    <circle cx="326.65" cy="116.01" r="4.00"/>
    <circle cx="280.96" cy="136.32" r="4.00"/>
    <circle cx="263.01" cy="145.23" r="4.00"/>
    <circle cx="309.18" cy="126.03" r="4.00"/>
    <circle cx="337.84" cy="116.85" r="4.00"/>
    <circle cx="291.66" cy="136.05" r="4.00"/>
    <circle cx="319.86" cy="125.79" r="4.00"/>
  </g>
  <g style="fill:#DDDDDD" id="TFE">
    <circle cx="330.46" cy="125.58" r="4.00"/>
    <circle cx="302.27" cy="135.83" r="4.00"/>
    <circle cx="274.07" cy="146.07" r="4.00"/>
    <circle cx="312.79" cy="135.65" r="4.00"/>
    <circle cx="341.31" cy="126.35" r="4.00"/>
    <circle cx="284.58" cy="145.88" r="4.00"/>
    <circle cx="256.08" cy="155.26" r="4.00"/>
    <circle cx="323.25" cy="135.50" r="4.00"/>
    <circle cx="295.00" cy="145.73" r="4.00"/>
    <circle cx="333.65" cy="135.38" r="4.00"/>
    <circle cx="266.51" cy="155.19" r="4.00"/>
    <circle cx="305.37" cy="145.61" r="4.00"/>
    <circle cx="344.22" cy="136.04" r="4.00"/>
    <circle cx="315.69" cy="145.51" r="4.00"/>
  </g>
  <g style="fill:#BBBBBB" id="UHP">
    <circle cx="277.04" cy="155.83" r="4.00"/>
    <circle cx="325.96" cy="145.43" r="4.00"/>
    <circle cx="287.29" cy="155.74" r="4.00"/>
    <circle cx="336.21" cy="145.36" r="4.00"/>
    <circle cx="297.51" cy="155.67" r="4.00"/>
    <circle cx="346.54" cy="145.88" r="4.00"/>
    <circle cx="307.69" cy="155.61" r="4.00"/>
    <circle cx="258.68" cy="165.50" r="4.00"/>
  </g>
  <g style="fill:#999999" id="SFM">
    <circle cx="317.85" cy="155.56" r="4.00"/>
    <circle cx="327.99" cy="155.52" r="4.00"/>
    <circle cx="268.82" cy="165.50" r="4.00"/>
    <circle cx="338.11" cy="155.49" r="4.00"/>
    <circle cx="348.28" cy="155.85" r="4.00"/>
    <circle cx="278.99" cy="165.84" r="4.00"/>
    <circle cx="289.08" cy="165.81" r="4.00"/>
  </g>
  <g style="fill:#777777" id="GOL">
    <circle cx="299.16" cy="165.78" r="4.00"/>
    <circle cx="309.22" cy="165.76" r="4.00"/>
    <circle cx="319.27" cy="165.74" r="4.00"/>
    <circle cx="329.32" cy="165.73" r="4.00"/>
  </g>
  <g style="fill:#555555" id="Neutral">
    <circle cx="339.36" cy="165.71" r="4.00"/>
    <circle cx="349.41" cy="165.90" r="4.00"/>
    <circle cx="259.90" cy="176.00" r="4.00"/>
    <circle cx="269.91" cy="176.00" r="4.00"/>
    <circle cx="279.92" cy="176.00" r="4.00"/>
    <circle cx="289.93" cy="176.00" r="4.00"/>
    <circle cx="299.93" cy="176.00" r="4.00"/>
    <circle cx="309.94" cy="176.00" r="4.00"/>
    <circle cx="319.94" cy="176.00" r="4.00"/>
    <circle cx="329.95" cy="176.00" r="4.00"/>
    <circle cx="339.95" cy="176.00" r="4.00"/>
    <circle cx="349.95" cy="176.00" r="4.00"/>
  </g>
</g>
</svg>
